{
	"asset":{
		"generator":"Khronos glTF Blender I/O v4.3.47",
		"version":"2.0"
	},
	"scene":0,
	"scenes":[
		{
			"name":"Scene",
			"nodes":[
				0
			]
		}
	],
	"nodes":[
		{
			"mesh":0,
			"name":"MouthMesh.001"
		}
	],
	"materials":[
		{
			"doubleSided":true,
			"name":"Mouth",
			"pbrMetallicRoughness":{
				"baseColorFactor":[
					0.467202365398407,
					0.1682368516921997,
					0.1682368516921997,
					1
				],
				"metallicFactor":0
			}
		}
	],
	"meshes":[
		{
			"name":"MyHumanHeadMesh.006",
			"primitives":[
				{
					"attributes":{
						"POSITION":0,
						"NORMAL":1,
						"TEXCOORD_0":2,
						"COLOR_0":3,
						"COLOR_1":4,
						"COLOR_2":5
					},
					"indices":6,
					"material":0
				}
			]
		}
	],
	"accessors":[
		{
			"bufferView":0,
			"componentType":5126,
			"count":2425,
			"max":[
				0.04024538770318031,
				0.08638805150985718,
				0.12600618600845337
			],
			"min":[
				-0.04024538770318031,
				-0.020199613645672798,
				0.026692267507314682
			],
			"type":"VEC3"
		},
		{
			"bufferView":1,
			"componentType":5126,
			"count":2425,
			"type":"VEC3"
		},
		{
			"bufferView":2,
			"componentType":5126,
			"count":2425,
			"type":"VEC2"
		},
		{
			"bufferView":3,
			"componentType":5121,
			"count":2425,
			"normalized":true,
			"type":"VEC4"
		},
		{
			"bufferView":4,
			"componentType":5123,
			"count":2425,
			"normalized":true,
			"type":"VEC4"
		},
		{
			"bufferView":5,
			"componentType":5123,
			"count":2425,
			"normalized":true,
			"type":"VEC4"
		},
		{
			"bufferView":6,
			"componentType":5123,
			"count":11814,
			"type":"SCALAR"
		}
	],
	"bufferViews":[
		{
			"buffer":0,
			"byteLength":29100,
			"byteOffset":0,
			"target":34962
		},
		{
			"buffer":0,
			"byteLength":29100,
			"byteOffset":29100,
			"target":34962
		},
		{
			"buffer":0,
			"byteLength":19400,
			"byteOffset":58200,
			"target":34962
		},
		{
			"buffer":0,
			"byteLength":9700,
			"byteOffset":77600,
			"target":34962
		},
		{
			"buffer":0,
			"byteLength":19400,
			"byteOffset":87300,
			"target":34962
		},
		{
			"buffer":0,
			"byteLength":19400,
			"byteOffset":106700,
			"target":34962
		},
		{
			"buffer":0,
			"byteLength":23628,
			"byteOffset":126100,
			"target":34963
		}
	],
	"buffers":[
		{
			"byteLength":149728,
			"uri":"MyHumanHeadV2Mouth.bin"
		}
	]
}
